<?xml version="1.0" encoding="UTF-8" standalone="no"?><svg xmlns="http://www.w3.org/2000/svg" xmlns:xlink="http://www.w3.org/1999/xlink" contentScriptType="application/ecmascript" contentStyleType="text/css" height="714px" preserveAspectRatio="none" style="width:772px;height:714px;" version="1.1" viewBox="0 0 772 714" width="772px" zoomAndPan="magnify"><defs/><g><rect fill="#FFFFFF" height="104.5313" style="stroke: #000000; stroke-width: 2.0;" width="552" x="219.5" y="293.7891"/><rect fill="#FFFFFF" height="46.2656" style="stroke: #000000; stroke-width: 2.0;" width="334.5" x="13" y="412.3203"/><rect fill="#FFFFFF" height="119.6641" style="stroke: #000000; stroke-width: 2.0;" width="552" x="219.5" y="472.5859"/><line style="stroke: #A80036; stroke-width: 1.0; stroke-dasharray: 5.0,5.0;" x1="74" x2="74" y1="50.5938" y2="667.5156"/><line style="stroke: #A80036; stroke-width: 1.0; stroke-dasharray: 5.0,5.0;" x1="283.5" x2="283.5" y1="50.5938" y2="667.5156"/><line style="stroke: #A80036; stroke-width: 1.0; stroke-dasharray: 5.0,5.0;" x1="514.5" x2="514.5" y1="50.5938" y2="667.5156"/><line style="stroke: #A80036; stroke-width: 1.0; stroke-dasharray: 5.0,5.0;" x1="716.5" x2="716.5" y1="50.5938" y2="667.5156"/><rect fill="#FEFECE" height="30.2969" style="stroke: #A80036; stroke-width: 1.5;" width="103" x="23" y="19.2969"/><text fill="#000000" font-family="Helvetica" font-size="14" lengthAdjust="spacingAndGlyphs" textLength="89" x="30" y="39.292">Test Window</text><rect fill="#FEFECE" height="30.2969" style="stroke: #A80036; stroke-width: 1.5;" width="103" x="23" y="666.5156"/><text fill="#000000" font-family="Helvetica" font-size="14" lengthAdjust="spacingAndGlyphs" textLength="89" x="30" y="686.5107">Test Window</text><rect fill="#FEFECE" height="30.2969" style="stroke: #A80036; stroke-width: 1.5;" width="108" x="229.5" y="19.2969"/><text fill="#000000" font-family="Helvetica" font-size="14" lengthAdjust="spacingAndGlyphs" textLength="94" x="236.5" y="39.292">ATTAcomm.js</text><rect fill="#FEFECE" height="30.2969" style="stroke: #A80036; stroke-width: 1.5;" width="108" x="229.5" y="666.5156"/><text fill="#000000" font-family="Helvetica" font-size="14" lengthAdjust="spacingAndGlyphs" textLength="94" x="236.5" y="686.5107">ATTAcomm.js</text><rect fill="#FEFECE" height="30.2969" style="stroke: #A80036; stroke-width: 1.5;" width="50" x="489.5" y="19.2969"/><text fill="#000000" font-family="Helvetica" font-size="14" lengthAdjust="spacingAndGlyphs" textLength="36" x="496.5" y="39.292">ATTA</text><rect fill="#FEFECE" height="30.2969" style="stroke: #A80036; stroke-width: 1.5;" width="50" x="489.5" y="666.5156"/><text fill="#000000" font-family="Helvetica" font-size="14" lengthAdjust="spacingAndGlyphs" textLength="36" x="496.5" y="686.5107">ATTA</text><rect fill="#FEFECE" height="46.5938" style="stroke: #A80036; stroke-width: 1.5;" width="90" x="671.5" y="3"/><text fill="#000000" font-family="Helvetica" font-size="14" lengthAdjust="spacingAndGlyphs" textLength="56" x="688.5" y="22.9951">Platform</text><text fill="#000000" font-family="Helvetica" font-size="14" lengthAdjust="spacingAndGlyphs" textLength="76" x="678.5" y="39.292">A11Y Layer</text><rect fill="#FEFECE" height="46.5938" style="stroke: #A80036; stroke-width: 1.5;" width="90" x="671.5" y="666.5156"/><text fill="#000000" font-family="Helvetica" font-size="14" lengthAdjust="spacingAndGlyphs" textLength="56" x="688.5" y="686.5107">Platform</text><text fill="#000000" font-family="Helvetica" font-size="14" lengthAdjust="spacingAndGlyphs" textLength="76" x="678.5" y="702.8076">A11Y Layer</text><polygon fill="#A80036" points="271.5,77.5938,281.5,81.5938,271.5,85.5938,275.5,81.5938" style="stroke: #A80036; stroke-width: 1.0;"/><line style="stroke: #A80036; stroke-width: 1.0;" x1="74.5" x2="277.5" y1="81.5938" y2="81.5938"/><text fill="#000000" font-family="Helvetica" font-size="13" lengthAdjust="spacingAndGlyphs" textLength="51" x="81.5" y="76.6606">initialize</text><polygon fill="#A80036" points="85.5,121.7266,75.5,125.7266,85.5,129.7266,81.5,125.7266" style="stroke: #A80036; stroke-width: 1.0;"/><line style="stroke: #A80036; stroke-width: 1.0;" x1="79.5" x2="282.5" y1="125.7266" y2="125.7266"/><text fill="#000000" font-family="Helvetica" font-size="13" lengthAdjust="spacingAndGlyphs" textLength="185" x="91.5" y="105.7935">Register DOMContentLoaded</text><text fill="#000000" font-family="Helvetica" font-size="13" lengthAdjust="spacingAndGlyphs" textLength="88" x="91.5" y="120.9263">event handler</text><polygon fill="#A80036" points="271.5,150.9922,281.5,154.9922,271.5,158.9922,275.5,154.9922" style="stroke: #A80036; stroke-width: 1.0;"/><line style="stroke: #A80036; stroke-width: 1.0;" x1="74.5" x2="277.5" y1="154.9922" y2="154.9922"/><text fill="#000000" font-family="Helvetica" font-size="13" lengthAdjust="spacingAndGlyphs" textLength="160" x="81.5" y="150.0591">DOMContentLoaded fires</text><polygon fill="#A80036" points="502.5,190.6914,512.5,194.6914,502.5,198.6914,506.5,194.6914" style="stroke: #A80036; stroke-width: 1.0;"/><line style="stroke: #A80036; stroke-width: 1.0;" x1="283.5" x2="508.5" y1="194.6914" y2="194.6914"/><text fill="#000000" font-family="Helvetica" font-size="13" lengthAdjust="spacingAndGlyphs" textLength="110" x="290.5" y="189.7583">start (name, URI)</text><polygon fill="#FBFB77" points="519,168.125,519,208.125,764,208.125,764,178.125,754,168.125,519,168.125" style="stroke: #A80036; stroke-width: 1.0;"/><line style="stroke: #A80036; stroke-width: 1.0;" x1="754" x2="754" y1="168.125" y2="178.125"/><line style="stroke: #A80036; stroke-width: 1.0;" x1="764" x2="754" y1="178.125" y2="178.125"/><text fill="#000000" font-family="Helvetica" font-size="13" lengthAdjust="spacingAndGlyphs" textLength="224" x="525" y="185.1919">Communication with ATTA via HTTP</text><text fill="#000000" font-family="Helvetica" font-size="13" lengthAdjust="spacingAndGlyphs" textLength="140" x="525" y="200.3247">to localhost port 4119</text><polygon fill="#A80036" points="525.5,245.3906,515.5,249.3906,525.5,253.3906,521.5,249.3906" style="stroke: #A80036; stroke-width: 1.0;"/><polygon fill="#A80036" points="704.5,245.3906,714.5,249.3906,704.5,253.3906,708.5,249.3906" style="stroke: #A80036; stroke-width: 1.0;"/><line style="stroke: #A80036; stroke-width: 1.0;" x1="519.5" x2="710.5" y1="249.3906" y2="249.3906"/><text fill="#000000" font-family="Helvetica" font-size="13" lengthAdjust="spacingAndGlyphs" textLength="120" x="531.5" y="229.4575">Interrogate window</text><text fill="#000000" font-family="Helvetica" font-size="13" lengthAdjust="spacingAndGlyphs" textLength="109" x="531.5" y="244.5903">and environment</text><polygon fill="#A80036" points="294.5,274.6563,284.5,278.6563,294.5,282.6563,290.5,278.6563" style="stroke: #A80036; stroke-width: 1.0;"/><line style="stroke: #A80036; stroke-width: 1.0;" x1="288.5" x2="513.5" y1="278.6563" y2="278.6563"/><text fill="#000000" font-family="Helvetica" font-size="13" lengthAdjust="spacingAndGlyphs" textLength="145" x="300.5" y="273.7231">READY (API name, etc)</text><rect fill="none" height="104.5313" style="stroke: #000000; stroke-width: 2.0;" width="552" x="219.5" y="293.7891"/><polygon fill="#EEEEEE" points="219.5,293.7891,311.5,293.7891,311.5,300.7891,301.5,310.7891,219.5,310.7891,219.5,293.7891" style="stroke: #000000; stroke-width: 2.0;"/><text fill="#000000" font-family="Helvetica" font-size="13" font-weight="bold" lengthAdjust="spacingAndGlyphs" textLength="47" x="234.5" y="306.856">step 1</text><polygon fill="#A80036" points="502.5,327.9219,512.5,331.9219,502.5,335.9219,506.5,331.9219" style="stroke: #A80036; stroke-width: 1.0;"/><line style="stroke: #A80036; stroke-width: 1.0;" x1="283.5" x2="508.5" y1="331.9219" y2="331.9219"/><text fill="#000000" font-family="Helvetica" font-size="13" lengthAdjust="spacingAndGlyphs" textLength="207" x="290.5" y="326.9888">test (element, things to look for)</text><polygon fill="#A80036" points="525.5,357.0547,515.5,361.0547,525.5,365.0547,521.5,361.0547" style="stroke: #A80036; stroke-width: 1.0;"/><polygon fill="#A80036" points="704.5,357.0547,714.5,361.0547,704.5,365.0547,708.5,361.0547" style="stroke: #A80036; stroke-width: 1.0;"/><line style="stroke: #A80036; stroke-width: 1.0;" x1="519.5" x2="710.5" y1="361.0547" y2="361.0547"/><text fill="#000000" font-family="Helvetica" font-size="13" lengthAdjust="spacingAndGlyphs" textLength="148" x="531.5" y="356.1216">Get info about element</text><polygon fill="#A80036" points="294.5,386.1875,284.5,390.1875,294.5,394.1875,290.5,390.1875" style="stroke: #A80036; stroke-width: 1.0;"/><line style="stroke: #A80036; stroke-width: 1.0;" x1="288.5" x2="513.5" y1="390.1875" y2="390.1875"/><text fill="#000000" font-family="Helvetica" font-size="13" lengthAdjust="spacingAndGlyphs" textLength="160" x="300.5" y="385.2544">OK (result for each thing)</text><rect fill="none" height="46.2656" style="stroke: #000000; stroke-width: 2.0;" width="334.5" x="13" y="412.3203"/><polygon fill="#EEEEEE" points="13,412.3203,105,412.3203,105,419.3203,95,429.3203,13,429.3203,13,412.3203" style="stroke: #000000; stroke-width: 2.0;"/><text fill="#000000" font-family="Helvetica" font-size="13" font-weight="bold" lengthAdjust="spacingAndGlyphs" textLength="47" x="28" y="425.3872">step 2</text><polygon fill="#A80036" points="85.5,446.4531,75.5,450.4531,85.5,454.4531,81.5,450.4531" style="stroke: #A80036; stroke-width: 1.0;"/><line style="stroke: #A80036; stroke-width: 1.0;" x1="79.5" x2="282.5" y1="450.4531" y2="450.4531"/><text fill="#000000" font-family="Helvetica" font-size="13" lengthAdjust="spacingAndGlyphs" textLength="130" x="91.5" y="445.52">set aria-busy to true</text><rect fill="none" height="119.6641" style="stroke: #000000; stroke-width: 2.0;" width="552" x="219.5" y="472.5859"/><polygon fill="#EEEEEE" points="219.5,472.5859,311.5,472.5859,311.5,479.5859,301.5,489.5859,219.5,489.5859,219.5,472.5859" style="stroke: #000000; stroke-width: 2.0;"/><text fill="#000000" font-family="Helvetica" font-size="13" font-weight="bold" lengthAdjust="spacingAndGlyphs" textLength="47" x="234.5" y="485.6528">step 3</text><polygon fill="#A80036" points="502.5,521.7188,512.5,525.7188,502.5,529.7188,506.5,525.7188" style="stroke: #A80036; stroke-width: 1.0;"/><line style="stroke: #A80036; stroke-width: 1.0;" x1="283.5" x2="508.5" y1="525.7188" y2="525.7188"/><text fill="#000000" font-family="Helvetica" font-size="13" lengthAdjust="spacingAndGlyphs" textLength="148" x="290.5" y="505.7856">test (element, different</text><text fill="#000000" font-family="Helvetica" font-size="13" lengthAdjust="spacingAndGlyphs" textLength="112" x="290.5" y="520.9185">things to look for)</text><polygon fill="#A80036" points="525.5,550.9844,515.5,554.9844,525.5,558.9844,521.5,554.9844" style="stroke: #A80036; stroke-width: 1.0;"/><polygon fill="#A80036" points="704.5,550.9844,714.5,554.9844,704.5,558.9844,708.5,554.9844" style="stroke: #A80036; stroke-width: 1.0;"/><line style="stroke: #A80036; stroke-width: 1.0;" x1="519.5" x2="710.5" y1="554.9844" y2="554.9844"/><text fill="#000000" font-family="Helvetica" font-size="13" lengthAdjust="spacingAndGlyphs" textLength="148" x="531.5" y="550.0513">Get info about element</text><polygon fill="#A80036" points="294.5,580.1172,284.5,584.1172,294.5,588.1172,290.5,584.1172" style="stroke: #A80036; stroke-width: 1.0;"/><line style="stroke: #A80036; stroke-width: 1.0;" x1="288.5" x2="513.5" y1="584.1172" y2="584.1172"/><text fill="#000000" font-family="Helvetica" font-size="13" lengthAdjust="spacingAndGlyphs" textLength="160" x="300.5" y="579.1841">OK (result for each thing)</text><polygon fill="#A80036" points="502.5,616.25,512.5,620.25,502.5,624.25,506.5,620.25" style="stroke: #A80036; stroke-width: 1.0;"/><line style="stroke: #A80036; stroke-width: 1.0;" x1="283.5" x2="508.5" y1="620.25" y2="620.25"/><text fill="#000000" font-family="Helvetica" font-size="13" lengthAdjust="spacingAndGlyphs" textLength="24" x="290.5" y="615.3169">end</text><polygon fill="#A80036" points="525.5,645.3828,515.5,649.3828,525.5,653.3828,521.5,649.3828" style="stroke: #A80036; stroke-width: 1.0;"/><polygon fill="#A80036" points="704.5,645.3828,714.5,649.3828,704.5,653.3828,708.5,649.3828" style="stroke: #A80036; stroke-width: 1.0;"/><line style="stroke: #A80036; stroke-width: 1.0;" x1="519.5" x2="710.5" y1="649.3828" y2="649.3828"/><text fill="#000000" font-family="Helvetica" font-size="13" lengthAdjust="spacingAndGlyphs" textLength="178" x="531.5" y="644.4497">Cleanup event listeners etc.</text></g></svg>