<?xml version="1.0" encoding="UTF-8" standalone="no"?><svg xmlns="http://www.w3.org/2000/svg" xmlns:xlink="http://www.w3.org/1999/xlink" contentScriptType="application/ecmascript" contentStyleType="text/css" height="837px" preserveAspectRatio="none" style="width:997px;height:837px;" version="1.1" viewBox="0 0 997 837" width="997px" zoomAndPan="magnify"><defs/><g><text fill="#000000" font-family="Helvetica" font-size="14" font-weight="bold" lengthAdjust="spacingAndGlyphs" textLength="174" x="417.75" y="22.9951">WPT Dialog with ATTA</text><rect fill="#FFFFFF" height="498.3906" style="stroke: #000000; stroke-width: 2.0;" width="983.5" x="13" y="216.9922"/><rect fill="#FFFFFF" height="191.9297" style="stroke: #000000; stroke-width: 2.0;" width="541" x="431" y="399.9219"/><line style="stroke: #A80036; stroke-width: 1.0; stroke-dasharray: 5.0,5.0;" x1="48" x2="48" y1="112.5938" y2="761.5156"/><line style="stroke: #A80036; stroke-width: 1.0; stroke-dasharray: 5.0,5.0;" x1="264" x2="264" y1="112.5938" y2="761.5156"/><line style="stroke: #A80036; stroke-width: 1.0; stroke-dasharray: 5.0,5.0;" x1="492" x2="492" y1="112.5938" y2="761.5156"/><line style="stroke: #A80036; stroke-width: 1.0; stroke-dasharray: 5.0,5.0;" x1="731.5" x2="731.5" y1="112.5938" y2="761.5156"/><line style="stroke: #A80036; stroke-width: 1.0; stroke-dasharray: 5.0,5.0;" x1="933" x2="933" y1="112.5938" y2="761.5156"/><text fill="#000000" font-family="Helvetica" font-size="14" lengthAdjust="spacingAndGlyphs" textLength="45" x="23" y="109.292">Tester</text><ellipse cx="48.5" cy="43.2969" fill="#FEFECE" rx="8" ry="8" style="stroke: #A80036; stroke-width: 2.0;"/><path d="M48.5,51.2969 L48.5,78.2969 M35.5,59.2969 L61.5,59.2969 M48.5,78.2969 L35.5,93.2969 M48.5,78.2969 L61.5,93.2969 " fill="#FEFECE" style="stroke: #A80036; stroke-width: 2.0;"/><text fill="#000000" font-family="Helvetica" font-size="14" lengthAdjust="spacingAndGlyphs" textLength="45" x="23" y="773.5107">Tester</text><ellipse cx="48.5" cy="786.8125" fill="#FEFECE" rx="8" ry="8" style="stroke: #A80036; stroke-width: 2.0;"/><path d="M48.5,794.8125 L48.5,821.8125 M35.5,802.8125 L61.5,802.8125 M48.5,821.8125 L35.5,836.8125 M48.5,821.8125 L61.5,836.8125 " fill="#FEFECE" style="stroke: #A80036; stroke-width: 2.0;"/><rect fill="#FEFECE" height="30.2969" style="stroke: #A80036; stroke-width: 1.5;" width="141" x="194" y="81.2969"/><text fill="#000000" font-family="Helvetica" font-size="14" lengthAdjust="spacingAndGlyphs" textLength="127" x="201" y="101.292">WPT Run Interface</text><rect fill="#FEFECE" height="30.2969" style="stroke: #A80036; stroke-width: 1.5;" width="141" x="194" y="760.5156"/><text fill="#000000" font-family="Helvetica" font-size="14" lengthAdjust="spacingAndGlyphs" textLength="127" x="201" y="780.5107">WPT Run Interface</text><rect fill="#FEFECE" height="30.2969" style="stroke: #A80036; stroke-width: 1.5;" width="103" x="441" y="81.2969"/><text fill="#000000" font-family="Helvetica" font-size="14" lengthAdjust="spacingAndGlyphs" textLength="89" x="448" y="101.292">Test Window</text><rect fill="#FEFECE" height="30.2969" style="stroke: #A80036; stroke-width: 1.5;" width="103" x="441" y="760.5156"/><text fill="#000000" font-family="Helvetica" font-size="14" lengthAdjust="spacingAndGlyphs" textLength="89" x="448" y="780.5107">Test Window</text><rect fill="#FEFECE" height="30.2969" style="stroke: #A80036; stroke-width: 1.5;" width="50" x="706.5" y="81.2969"/><text fill="#000000" font-family="Helvetica" font-size="14" lengthAdjust="spacingAndGlyphs" textLength="36" x="713.5" y="101.292">ATTA</text><rect fill="#FEFECE" height="30.2969" style="stroke: #A80036; stroke-width: 1.5;" width="50" x="706.5" y="760.5156"/><text fill="#000000" font-family="Helvetica" font-size="14" lengthAdjust="spacingAndGlyphs" textLength="36" x="713.5" y="780.5107">ATTA</text><rect fill="#FEFECE" height="30.2969" style="stroke: #A80036; stroke-width: 1.5;" width="57" x="905" y="81.2969"/><text fill="#000000" font-family="Helvetica" font-size="14" lengthAdjust="spacingAndGlyphs" textLength="43" x="912" y="101.292">AT API</text><rect fill="#FEFECE" height="30.2969" style="stroke: #A80036; stroke-width: 1.5;" width="57" x="905" y="760.5156"/><text fill="#000000" font-family="Helvetica" font-size="14" lengthAdjust="spacingAndGlyphs" textLength="43" x="912" y="780.5107">AT API</text><polygon fill="#A80036" points="252.5,139.5938,262.5,143.5938,252.5,147.5938,256.5,143.5938" style="stroke: #A80036; stroke-width: 1.0;"/><line style="stroke: #A80036; stroke-width: 1.0;" x1="48.5" x2="258.5" y1="143.5938" y2="143.5938"/><text fill="#000000" font-family="Helvetica" font-size="13" lengthAdjust="spacingAndGlyphs" textLength="76" x="55.5" y="138.6606">Select tests</text><polygon fill="#A80036" points="59.5,168.7266,49.5,172.7266,59.5,176.7266,55.5,172.7266" style="stroke: #A80036; stroke-width: 1.0;"/><line style="stroke: #A80036; stroke-width: 1.0;" x1="53.5" x2="263.5" y1="172.7266" y2="172.7266"/><text fill="#000000" font-family="Helvetica" font-size="13" lengthAdjust="spacingAndGlyphs" textLength="174" x="65.5" y="167.7935">Shows matching test count</text><polygon fill="#A80036" points="252.5,197.8594,262.5,201.8594,252.5,205.8594,256.5,201.8594" style="stroke: #A80036; stroke-width: 1.0;"/><line style="stroke: #A80036; stroke-width: 1.0;" x1="48.5" x2="258.5" y1="201.8594" y2="201.8594"/><text fill="#000000" font-family="Helvetica" font-size="13" lengthAdjust="spacingAndGlyphs" textLength="63" x="55.5" y="196.9263">Start Test</text><rect fill="none" height="498.3906" style="stroke: #000000; stroke-width: 2.0;" width="983.5" x="13" y="216.9922"/><polygon fill="#EEEEEE" points="13,216.9922,224,216.9922,224,223.9922,214,233.9922,13,233.9922,13,216.9922" style="stroke: #000000; stroke-width: 2.0;"/><text fill="#000000" font-family="Helvetica" font-size="13" font-weight="bold" lengthAdjust="spacingAndGlyphs" textLength="166" x="28" y="230.0591">For each test selected</text><polygon fill="#A80036" points="480.5,261.6914,490.5,265.6914,480.5,269.6914,484.5,265.6914" style="stroke: #A80036; stroke-width: 1.0;"/><line style="stroke: #A80036; stroke-width: 1.0;" x1="264.5" x2="486.5" y1="265.6914" y2="265.6914"/><text fill="#000000" font-family="Helvetica" font-size="13" lengthAdjust="spacingAndGlyphs" textLength="94" x="271.5" y="260.7583">Load test case</text><polygon fill="#FBFB77" points="497,239.125,497,279.125,657,279.125,657,249.125,647,239.125,497,239.125" style="stroke: #A80036; stroke-width: 1.0;"/><line style="stroke: #A80036; stroke-width: 1.0;" x1="647" x2="647" y1="239.125" y2="249.125"/><line style="stroke: #A80036; stroke-width: 1.0;" x1="657" x2="647" y1="249.125" y2="249.125"/><text fill="#000000" font-family="Helvetica" font-size="13" lengthAdjust="spacingAndGlyphs" textLength="90" x="503" y="256.1919">Test window is</text><text fill="#000000" font-family="Helvetica" font-size="13" lengthAdjust="spacingAndGlyphs" textLength="139" x="503" y="271.3247">created the first time.</text><polygon fill="#A80036" points="719.5,311.957,729.5,315.957,719.5,319.957,723.5,315.957" style="stroke: #A80036; stroke-width: 1.0;"/><line style="stroke: #A80036; stroke-width: 1.0;" x1="492.5" x2="725.5" y1="315.957" y2="315.957"/><text fill="#000000" font-family="Helvetica" font-size="13" lengthAdjust="spacingAndGlyphs" textLength="110" x="499.5" y="311.0239">start (name, URI)</text><polygon fill="#FBFB77" points="736,289.3906,736,329.3906,981,329.3906,981,299.3906,971,289.3906,736,289.3906" style="stroke: #A80036; stroke-width: 1.0;"/><line style="stroke: #A80036; stroke-width: 1.0;" x1="971" x2="971" y1="289.3906" y2="299.3906"/><line style="stroke: #A80036; stroke-width: 1.0;" x1="981" x2="971" y1="299.3906" y2="299.3906"/><text fill="#000000" font-family="Helvetica" font-size="13" lengthAdjust="spacingAndGlyphs" textLength="224" x="742" y="306.4575">Communication with ATTA via HTTP</text><text fill="#000000" font-family="Helvetica" font-size="13" lengthAdjust="spacingAndGlyphs" textLength="140" x="742" y="321.5903">to localhost port 4119</text><polygon fill="#A80036" points="742.5,351.6563,732.5,355.6563,742.5,359.6563,738.5,355.6563" style="stroke: #A80036; stroke-width: 1.0;"/><polygon fill="#A80036" points="921.5,351.6563,931.5,355.6563,921.5,359.6563,925.5,355.6563" style="stroke: #A80036; stroke-width: 1.0;"/><line style="stroke: #A80036; stroke-width: 1.0;" x1="736.5" x2="927.5" y1="355.6563" y2="355.6563"/><text fill="#000000" font-family="Helvetica" font-size="13" lengthAdjust="spacingAndGlyphs" textLength="149" x="748.5" y="350.7231">Interrogate test window</text><polygon fill="#A80036" points="503.5,380.7891,493.5,384.7891,503.5,388.7891,499.5,384.7891" style="stroke: #A80036; stroke-width: 1.0;"/><line style="stroke: #A80036; stroke-width: 1.0;" x1="497.5" x2="730.5" y1="384.7891" y2="384.7891"/><text fill="#000000" font-family="Helvetica" font-size="13" lengthAdjust="spacingAndGlyphs" textLength="145" x="509.5" y="379.856">READY (API name, etc)</text><rect fill="none" height="191.9297" style="stroke: #000000; stroke-width: 2.0;" width="541" x="431" y="399.9219"/><polygon fill="#EEEEEE" points="431,399.9219,630,399.9219,630,406.9219,620,416.9219,431,416.9219,431,399.9219" style="stroke: #000000; stroke-width: 2.0;"/><text fill="#000000" font-family="Helvetica" font-size="13" font-weight="bold" lengthAdjust="spacingAndGlyphs" textLength="154" x="446" y="412.9888">For each step in test</text><polygon fill="#A80036" points="719.5,434.0547,729.5,438.0547,719.5,442.0547,723.5,438.0547" style="stroke: #A80036; stroke-width: 1.0;"/><line style="stroke: #A80036; stroke-width: 1.0;" x1="492.5" x2="725.5" y1="438.0547" y2="438.0547"/><text fill="#000000" font-family="Helvetica" font-size="13" lengthAdjust="spacingAndGlyphs" textLength="207" x="499.5" y="433.1216">test (element, things to look for)</text><polygon fill="#A80036" points="742.5,463.1875,732.5,467.1875,742.5,471.1875,738.5,467.1875" style="stroke: #A80036; stroke-width: 1.0;"/><polygon fill="#A80036" points="921.5,463.1875,931.5,467.1875,921.5,471.1875,925.5,467.1875" style="stroke: #A80036; stroke-width: 1.0;"/><line style="stroke: #A80036; stroke-width: 1.0;" x1="736.5" x2="927.5" y1="467.1875" y2="467.1875"/><text fill="#000000" font-family="Helvetica" font-size="13" lengthAdjust="spacingAndGlyphs" textLength="148" x="748.5" y="462.2544">Get info about element</text><polygon fill="#A80036" points="503.5,492.3203,493.5,496.3203,503.5,500.3203,499.5,496.3203" style="stroke: #A80036; stroke-width: 1.0;"/><line style="stroke: #A80036; stroke-width: 1.0;" x1="497.5" x2="730.5" y1="496.3203" y2="496.3203"/><text fill="#000000" font-family="Helvetica" font-size="13" lengthAdjust="spacingAndGlyphs" textLength="160" x="509.5" y="491.3872">OK (result for each thing)</text><polygon fill="#A80036" points="719.5,521.4531,729.5,525.4531,719.5,529.4531,723.5,525.4531" style="stroke: #A80036; stroke-width: 1.0;"/><line style="stroke: #A80036; stroke-width: 1.0;" x1="492.5" x2="725.5" y1="525.4531" y2="525.4531"/><text fill="#000000" font-family="Helvetica" font-size="13" lengthAdjust="spacingAndGlyphs" textLength="215" x="499.5" y="520.52">test (element2, things to look for)</text><polygon fill="#A80036" points="742.5,550.5859,732.5,554.5859,742.5,558.5859,738.5,554.5859" style="stroke: #A80036; stroke-width: 1.0;"/><polygon fill="#A80036" points="921.5,550.5859,931.5,554.5859,921.5,558.5859,925.5,554.5859" style="stroke: #A80036; stroke-width: 1.0;"/><line style="stroke: #A80036; stroke-width: 1.0;" x1="736.5" x2="927.5" y1="554.5859" y2="554.5859"/><text fill="#000000" font-family="Helvetica" font-size="13" lengthAdjust="spacingAndGlyphs" textLength="156" x="748.5" y="549.6528">Get info about element2</text><polygon fill="#A80036" points="503.5,579.7188,493.5,583.7188,503.5,587.7188,499.5,583.7188" style="stroke: #A80036; stroke-width: 1.0;"/><line style="stroke: #A80036; stroke-width: 1.0;" x1="497.5" x2="730.5" y1="583.7188" y2="583.7188"/><text fill="#000000" font-family="Helvetica" font-size="13" lengthAdjust="spacingAndGlyphs" textLength="160" x="509.5" y="578.7856">OK (result for each thing)</text><polygon fill="#A80036" points="719.5,615.8516,729.5,619.8516,719.5,623.8516,723.5,619.8516" style="stroke: #A80036; stroke-width: 1.0;"/><line style="stroke: #A80036; stroke-width: 1.0;" x1="492.5" x2="725.5" y1="619.8516" y2="619.8516"/><text fill="#000000" font-family="Helvetica" font-size="13" lengthAdjust="spacingAndGlyphs" textLength="24" x="499.5" y="614.9185">end</text><polygon fill="#A80036" points="742.5,644.9844,732.5,648.9844,742.5,652.9844,738.5,648.9844" style="stroke: #A80036; stroke-width: 1.0;"/><polygon fill="#A80036" points="921.5,644.9844,931.5,648.9844,921.5,652.9844,925.5,648.9844" style="stroke: #A80036; stroke-width: 1.0;"/><line style="stroke: #A80036; stroke-width: 1.0;" x1="736.5" x2="927.5" y1="648.9844" y2="648.9844"/><text fill="#000000" font-family="Helvetica" font-size="13" lengthAdjust="spacingAndGlyphs" textLength="178" x="748.5" y="644.0513">Cleanup event listeners etc.</text><polygon fill="#A80036" points="275.5,674.1172,265.5,678.1172,275.5,682.1172,271.5,678.1172" style="stroke: #A80036; stroke-width: 1.0;"/><line style="stroke: #A80036; stroke-width: 1.0;" x1="269.5" x2="491.5" y1="678.1172" y2="678.1172"/><text fill="#000000" font-family="Helvetica" font-size="13" lengthAdjust="spacingAndGlyphs" textLength="204" x="281.5" y="673.1841">Deliver results of each "subtest"</text><polygon fill="#A80036" points="59.5,703.25,49.5,707.25,59.5,711.25,55.5,707.25" style="stroke: #A80036; stroke-width: 1.0;"/><line style="stroke: #A80036; stroke-width: 1.0;" x1="53.5" x2="263.5" y1="707.25" y2="707.25"/><text fill="#000000" font-family="Helvetica" font-size="13" lengthAdjust="spacingAndGlyphs" textLength="146" x="65.5" y="702.3169">Update table of results</text><polygon fill="#A80036" points="59.5,739.3828,49.5,743.3828,59.5,747.3828,55.5,743.3828" style="stroke: #A80036; stroke-width: 1.0;"/><line style="stroke: #A80036; stroke-width: 1.0;" x1="53.5" x2="263.5" y1="743.3828" y2="743.3828"/><text fill="#000000" font-family="Helvetica" font-size="13" lengthAdjust="spacingAndGlyphs" textLength="192" x="65.5" y="738.4497">Make results available in JSON</text></g></svg>