<?xml version="1.0" encoding="UTF-8" standalone="no"?><svg xmlns="http://www.w3.org/2000/svg" xmlns:xlink="http://www.w3.org/1999/xlink" contentScriptType="application/ecmascript" contentStyleType="text/css" height="912px" preserveAspectRatio="none" style="width:984px;height:912px;" version="1.1" viewBox="0 0 984 912" width="984px" zoomAndPan="magnify"><defs/><g><rect fill="#FFFFFF" height="191.9297" style="stroke: #000000; stroke-width: 2.0;" width="557.5" x="416" y="431.7578"/><rect fill="#DDDDDD" height="907.7813" style="stroke: #A80036; stroke-width: 1.0;" width="792.5" x="175" y="4"/><text fill="#000000" font-family="Helvetica" font-size="13" font-weight="bold" lengthAdjust="spacingAndGlyphs" textLength="122" x="510.25" y="16.0669">Scope of testing</text><line style="stroke: #A80036; stroke-width: 1.0; stroke-dasharray: 5.0,5.0;" x1="33" x2="33" y1="82.2969" y2="829.4844"/><line style="stroke: #A80036; stroke-width: 1.0; stroke-dasharray: 5.0,5.0;" x1="249" x2="249" y1="82.2969" y2="829.4844"/><line style="stroke: #A80036; stroke-width: 1.0; stroke-dasharray: 5.0,5.0;" x1="477" x2="477" y1="82.2969" y2="829.4844"/><line style="stroke: #A80036; stroke-width: 1.0; stroke-dasharray: 5.0,5.0;" x1="716.5" x2="716.5" y1="82.2969" y2="829.4844"/><line style="stroke: #A80036; stroke-width: 1.0; stroke-dasharray: 5.0,5.0;" x1="918.5" x2="918.5" y1="82.2969" y2="829.4844"/><text fill="#000000" font-family="Helvetica" font-size="14" lengthAdjust="spacingAndGlyphs" textLength="45" x="8" y="78.9951">Tester</text><ellipse cx="33.5" cy="13" fill="#FEFECE" rx="8" ry="8" style="stroke: #A80036; stroke-width: 2.0;"/><path d="M33.5,21 L33.5,48 M20.5,29 L46.5,29 M33.5,48 L20.5,63 M33.5,48 L46.5,63 " fill="#FEFECE" style="stroke: #A80036; stroke-width: 2.0;"/><text fill="#000000" font-family="Helvetica" font-size="14" lengthAdjust="spacingAndGlyphs" textLength="45" x="8" y="841.4795">Tester</text><ellipse cx="33.5" cy="854.7813" fill="#FEFECE" rx="8" ry="8" style="stroke: #A80036; stroke-width: 2.0;"/><path d="M33.5,862.7813 L33.5,889.7813 M20.5,870.7813 L46.5,870.7813 M33.5,889.7813 L20.5,904.7813 M33.5,889.7813 L46.5,904.7813 " fill="#FEFECE" style="stroke: #A80036; stroke-width: 2.0;"/><rect fill="#FEFECE" height="30.2969" style="stroke: #A80036; stroke-width: 1.5;" width="141" x="179" y="51"/><text fill="#000000" font-family="Helvetica" font-size="14" lengthAdjust="spacingAndGlyphs" textLength="127" x="186" y="70.9951">WPT Run Interface</text><rect fill="#FEFECE" height="30.2969" style="stroke: #A80036; stroke-width: 1.5;" width="141" x="179" y="828.4844"/><text fill="#000000" font-family="Helvetica" font-size="14" lengthAdjust="spacingAndGlyphs" textLength="127" x="186" y="848.4795">WPT Run Interface</text><rect fill="#FEFECE" height="30.2969" style="stroke: #A80036; stroke-width: 1.5;" width="103" x="426" y="51"/><text fill="#000000" font-family="Helvetica" font-size="14" lengthAdjust="spacingAndGlyphs" textLength="89" x="433" y="70.9951">Test Window</text><rect fill="#FEFECE" height="30.2969" style="stroke: #A80036; stroke-width: 1.5;" width="103" x="426" y="828.4844"/><text fill="#000000" font-family="Helvetica" font-size="14" lengthAdjust="spacingAndGlyphs" textLength="89" x="433" y="848.4795">Test Window</text><rect fill="#FEFECE" height="30.2969" style="stroke: #A80036; stroke-width: 1.5;" width="50" x="691.5" y="51"/><text fill="#000000" font-family="Helvetica" font-size="14" lengthAdjust="spacingAndGlyphs" textLength="36" x="698.5" y="70.9951">ATTA</text><rect fill="#FEFECE" height="30.2969" style="stroke: #A80036; stroke-width: 1.5;" width="50" x="691.5" y="828.4844"/><text fill="#000000" font-family="Helvetica" font-size="14" lengthAdjust="spacingAndGlyphs" textLength="36" x="698.5" y="848.4795">ATTA</text><rect fill="#FEFECE" height="46.5938" style="stroke: #A80036; stroke-width: 1.5;" width="90" x="873.5" y="34.7031"/><text fill="#000000" font-family="Helvetica" font-size="14" lengthAdjust="spacingAndGlyphs" textLength="56" x="890.5" y="54.6982">Platform</text><text fill="#000000" font-family="Helvetica" font-size="14" lengthAdjust="spacingAndGlyphs" textLength="76" x="880.5" y="70.9951">A11Y Layer</text><rect fill="#FEFECE" height="46.5938" style="stroke: #A80036; stroke-width: 1.5;" width="90" x="873.5" y="828.4844"/><text fill="#000000" font-family="Helvetica" font-size="14" lengthAdjust="spacingAndGlyphs" textLength="56" x="890.5" y="848.4795">Platform</text><text fill="#000000" font-family="Helvetica" font-size="14" lengthAdjust="spacingAndGlyphs" textLength="76" x="880.5" y="864.7764">A11Y Layer</text><rect fill="#FFFFFF" height="3" style="stroke: #FFFFFF; stroke-width: 1.0;" width="980.5" x="3" y="112.8633"/><line style="stroke: #000000; stroke-width: 1.0;" x1="3" x2="983.5" y1="112.8633" y2="112.8633"/><line style="stroke: #000000; stroke-width: 1.0;" x1="3" x2="983.5" y1="115.8633" y2="115.8633"/><rect fill="#FFFFFF" height="23.1328" style="stroke: #000000; stroke-width: 2.0;" width="74" x="456.25" y="102.2969"/><text fill="#000000" font-family="Helvetica" font-size="13" font-weight="bold" lengthAdjust="spacingAndGlyphs" textLength="55" x="462.25" y="118.3638">Startup</text><polygon fill="#A80036" points="237.5,152.4297,247.5,156.4297,237.5,160.4297,241.5,156.4297" style="stroke: #A80036; stroke-width: 1.0;"/><line style="stroke: #A80036; stroke-width: 1.0;" x1="33.5" x2="243.5" y1="156.4297" y2="156.4297"/><text fill="#000000" font-family="Helvetica" font-size="13" lengthAdjust="spacingAndGlyphs" textLength="76" x="40.5" y="151.4966">Select tests</text><polygon fill="#A80036" points="44.5,181.5625,34.5,185.5625,44.5,189.5625,40.5,185.5625" style="stroke: #A80036; stroke-width: 1.0;"/><line style="stroke: #A80036; stroke-width: 1.0;" x1="38.5" x2="248.5" y1="185.5625" y2="185.5625"/><text fill="#000000" font-family="Helvetica" font-size="13" lengthAdjust="spacingAndGlyphs" textLength="174" x="50.5" y="180.6294">Shows matching test count</text><polygon fill="#A80036" points="237.5,210.6953,247.5,214.6953,237.5,218.6953,241.5,214.6953" style="stroke: #A80036; stroke-width: 1.0;"/><line style="stroke: #A80036; stroke-width: 1.0;" x1="33.5" x2="243.5" y1="214.6953" y2="214.6953"/><text fill="#000000" font-family="Helvetica" font-size="13" lengthAdjust="spacingAndGlyphs" textLength="63" x="40.5" y="209.7622">Start Test</text><rect fill="#FFFFFF" height="3" style="stroke: #FFFFFF; stroke-width: 1.0;" width="980.5" x="3" y="243.3945"/><line style="stroke: #000000; stroke-width: 1.0;" x1="3" x2="983.5" y1="243.3945" y2="243.3945"/><line style="stroke: #000000; stroke-width: 1.0;" x1="3" x2="983.5" y1="246.3945" y2="246.3945"/><rect fill="#FFFFFF" height="23.1328" style="stroke: #000000; stroke-width: 2.0;" width="72" x="457.25" y="232.8281"/><text fill="#000000" font-family="Helvetica" font-size="13" font-weight="bold" lengthAdjust="spacingAndGlyphs" textLength="53" x="463.25" y="248.895">Repeat</text><polygon fill="#A80036" points="465.5,293.5273,475.5,297.5273,465.5,301.5273,469.5,297.5273" style="stroke: #A80036; stroke-width: 1.0;"/><line style="stroke: #A80036; stroke-width: 1.0;" x1="249.5" x2="471.5" y1="297.5273" y2="297.5273"/><text fill="#000000" font-family="Helvetica" font-size="13" lengthAdjust="spacingAndGlyphs" textLength="94" x="256.5" y="292.5942">Load test case</text><polygon fill="#FBFB77" points="482,270.9609,482,310.9609,642,310.9609,642,280.9609,632,270.9609,482,270.9609" style="stroke: #A80036; stroke-width: 1.0;"/><line style="stroke: #A80036; stroke-width: 1.0;" x1="632" x2="632" y1="270.9609" y2="280.9609"/><line style="stroke: #A80036; stroke-width: 1.0;" x1="642" x2="632" y1="280.9609" y2="280.9609"/><text fill="#000000" font-family="Helvetica" font-size="13" lengthAdjust="spacingAndGlyphs" textLength="90" x="488" y="288.0278">Test window is</text><text fill="#000000" font-family="Helvetica" font-size="13" lengthAdjust="spacingAndGlyphs" textLength="139" x="488" y="303.1606">created the first time.</text><polygon fill="#A80036" points="704.5,343.793,714.5,347.793,704.5,351.793,708.5,347.793" style="stroke: #A80036; stroke-width: 1.0;"/><line style="stroke: #A80036; stroke-width: 1.0;" x1="477.5" x2="710.5" y1="347.793" y2="347.793"/><text fill="#000000" font-family="Helvetica" font-size="13" lengthAdjust="spacingAndGlyphs" textLength="110" x="484.5" y="342.8599">start (name, URI)</text><polygon fill="#FBFB77" points="721,321.2266,721,361.2266,966,361.2266,966,331.2266,956,321.2266,721,321.2266" style="stroke: #A80036; stroke-width: 1.0;"/><line style="stroke: #A80036; stroke-width: 1.0;" x1="956" x2="956" y1="321.2266" y2="331.2266"/><line style="stroke: #A80036; stroke-width: 1.0;" x1="966" x2="956" y1="331.2266" y2="331.2266"/><text fill="#000000" font-family="Helvetica" font-size="13" lengthAdjust="spacingAndGlyphs" textLength="224" x="727" y="338.2935">Communication with ATTA via HTTP</text><text fill="#000000" font-family="Helvetica" font-size="13" lengthAdjust="spacingAndGlyphs" textLength="140" x="727" y="353.4263">to localhost port 4119</text><polygon fill="#A80036" points="727.5,383.4922,717.5,387.4922,727.5,391.4922,723.5,387.4922" style="stroke: #A80036; stroke-width: 1.0;"/><polygon fill="#A80036" points="906.5,383.4922,916.5,387.4922,906.5,391.4922,910.5,387.4922" style="stroke: #A80036; stroke-width: 1.0;"/><line style="stroke: #A80036; stroke-width: 1.0;" x1="721.5" x2="912.5" y1="387.4922" y2="387.4922"/><text fill="#000000" font-family="Helvetica" font-size="13" lengthAdjust="spacingAndGlyphs" textLength="149" x="733.5" y="382.5591">Interrogate test window</text><polygon fill="#A80036" points="488.5,412.625,478.5,416.625,488.5,420.625,484.5,416.625" style="stroke: #A80036; stroke-width: 1.0;"/><line style="stroke: #A80036; stroke-width: 1.0;" x1="482.5" x2="715.5" y1="416.625" y2="416.625"/><text fill="#000000" font-family="Helvetica" font-size="13" lengthAdjust="spacingAndGlyphs" textLength="145" x="494.5" y="411.6919">READY (API name, etc)</text><rect fill="none" height="191.9297" style="stroke: #000000; stroke-width: 2.0;" width="557.5" x="416" y="431.7578"/><polygon fill="#EEEEEE" points="416,431.7578,615,431.7578,615,438.7578,605,448.7578,416,448.7578,416,431.7578" style="stroke: #000000; stroke-width: 2.0;"/><text fill="#000000" font-family="Helvetica" font-size="13" font-weight="bold" lengthAdjust="spacingAndGlyphs" textLength="154" x="431" y="444.8247">For each step in test</text><polygon fill="#A80036" points="704.5,465.8906,714.5,469.8906,704.5,473.8906,708.5,469.8906" style="stroke: #A80036; stroke-width: 1.0;"/><line style="stroke: #A80036; stroke-width: 1.0;" x1="477.5" x2="710.5" y1="469.8906" y2="469.8906"/><text fill="#000000" font-family="Helvetica" font-size="13" lengthAdjust="spacingAndGlyphs" textLength="207" x="484.5" y="464.9575">test (element, things to look for)</text><polygon fill="#A80036" points="727.5,495.0234,717.5,499.0234,727.5,503.0234,723.5,499.0234" style="stroke: #A80036; stroke-width: 1.0;"/><polygon fill="#A80036" points="906.5,495.0234,916.5,499.0234,906.5,503.0234,910.5,499.0234" style="stroke: #A80036; stroke-width: 1.0;"/><line style="stroke: #A80036; stroke-width: 1.0;" x1="721.5" x2="912.5" y1="499.0234" y2="499.0234"/><text fill="#000000" font-family="Helvetica" font-size="13" lengthAdjust="spacingAndGlyphs" textLength="148" x="733.5" y="494.0903">Get info about element</text><polygon fill="#A80036" points="488.5,524.1563,478.5,528.1563,488.5,532.1563,484.5,528.1563" style="stroke: #A80036; stroke-width: 1.0;"/><line style="stroke: #A80036; stroke-width: 1.0;" x1="482.5" x2="715.5" y1="528.1563" y2="528.1563"/><text fill="#000000" font-family="Helvetica" font-size="13" lengthAdjust="spacingAndGlyphs" textLength="160" x="494.5" y="523.2231">OK (result for each thing)</text><polygon fill="#A80036" points="704.5,553.2891,714.5,557.2891,704.5,561.2891,708.5,557.2891" style="stroke: #A80036; stroke-width: 1.0;"/><line style="stroke: #A80036; stroke-width: 1.0;" x1="477.5" x2="710.5" y1="557.2891" y2="557.2891"/><text fill="#000000" font-family="Helvetica" font-size="13" lengthAdjust="spacingAndGlyphs" textLength="215" x="484.5" y="552.356">test (element2, things to look for)</text><polygon fill="#A80036" points="727.5,582.4219,717.5,586.4219,727.5,590.4219,723.5,586.4219" style="stroke: #A80036; stroke-width: 1.0;"/><polygon fill="#A80036" points="906.5,582.4219,916.5,586.4219,906.5,590.4219,910.5,586.4219" style="stroke: #A80036; stroke-width: 1.0;"/><line style="stroke: #A80036; stroke-width: 1.0;" x1="721.5" x2="912.5" y1="586.4219" y2="586.4219"/><text fill="#000000" font-family="Helvetica" font-size="13" lengthAdjust="spacingAndGlyphs" textLength="156" x="733.5" y="581.4888">Get info about element2</text><polygon fill="#A80036" points="488.5,611.5547,478.5,615.5547,488.5,619.5547,484.5,615.5547" style="stroke: #A80036; stroke-width: 1.0;"/><line style="stroke: #A80036; stroke-width: 1.0;" x1="482.5" x2="715.5" y1="615.5547" y2="615.5547"/><text fill="#000000" font-family="Helvetica" font-size="13" lengthAdjust="spacingAndGlyphs" textLength="160" x="494.5" y="610.6216">OK (result for each thing)</text><polygon fill="#A80036" points="704.5,647.6875,714.5,651.6875,704.5,655.6875,708.5,651.6875" style="stroke: #A80036; stroke-width: 1.0;"/><line style="stroke: #A80036; stroke-width: 1.0;" x1="477.5" x2="710.5" y1="651.6875" y2="651.6875"/><text fill="#000000" font-family="Helvetica" font-size="13" lengthAdjust="spacingAndGlyphs" textLength="24" x="484.5" y="646.7544">end</text><polygon fill="#A80036" points="727.5,676.8203,717.5,680.8203,727.5,684.8203,723.5,680.8203" style="stroke: #A80036; stroke-width: 1.0;"/><polygon fill="#A80036" points="906.5,676.8203,916.5,680.8203,906.5,684.8203,910.5,680.8203" style="stroke: #A80036; stroke-width: 1.0;"/><line style="stroke: #A80036; stroke-width: 1.0;" x1="721.5" x2="912.5" y1="680.8203" y2="680.8203"/><text fill="#000000" font-family="Helvetica" font-size="13" lengthAdjust="spacingAndGlyphs" textLength="178" x="733.5" y="675.8872">Cleanup event listeners etc.</text><polygon fill="#A80036" points="260.5,705.9531,250.5,709.9531,260.5,713.9531,256.5,709.9531" style="stroke: #A80036; stroke-width: 1.0;"/><line style="stroke: #A80036; stroke-width: 1.0;" x1="254.5" x2="476.5" y1="709.9531" y2="709.9531"/><text fill="#000000" font-family="Helvetica" font-size="13" lengthAdjust="spacingAndGlyphs" textLength="204" x="266.5" y="705.02">Deliver results of each "subtest"</text><polygon fill="#A80036" points="44.5,735.0859,34.5,739.0859,44.5,743.0859,40.5,739.0859" style="stroke: #A80036; stroke-width: 1.0;"/><line style="stroke: #A80036; stroke-width: 1.0;" x1="38.5" x2="248.5" y1="739.0859" y2="739.0859"/><text fill="#000000" font-family="Helvetica" font-size="13" lengthAdjust="spacingAndGlyphs" textLength="146" x="50.5" y="734.1528">Update table of results</text><rect fill="#FFFFFF" height="3" style="stroke: #FFFFFF; stroke-width: 1.0;" width="980.5" x="3" y="767.7852"/><line style="stroke: #000000; stroke-width: 1.0;" x1="3" x2="983.5" y1="767.7852" y2="767.7852"/><line style="stroke: #000000; stroke-width: 1.0;" x1="3" x2="983.5" y1="770.7852" y2="770.7852"/><rect fill="#FFFFFF" height="23.1328" style="stroke: #000000; stroke-width: 2.0;" width="90" x="448.25" y="757.2188"/><text fill="#000000" font-family="Helvetica" font-size="13" font-weight="bold" lengthAdjust="spacingAndGlyphs" textLength="71" x="454.25" y="773.2856">Complete</text><polygon fill="#A80036" points="44.5,807.3516,34.5,811.3516,44.5,815.3516,40.5,811.3516" style="stroke: #A80036; stroke-width: 1.0;"/><line style="stroke: #A80036; stroke-width: 1.0;" x1="38.5" x2="248.5" y1="811.3516" y2="811.3516"/><text fill="#000000" font-family="Helvetica" font-size="13" lengthAdjust="spacingAndGlyphs" textLength="192" x="50.5" y="806.4185">Make results available in JSON</text></g></svg>