<?xml version="1.0" encoding="UTF-8" standalone="no"?><svg xmlns="http://www.w3.org/2000/svg" xmlns:xlink="http://www.w3.org/1999/xlink" contentScriptType="application/ecmascript" contentStyleType="text/css" height="507px" preserveAspectRatio="none" style="width:730px;height:507px;" version="1.1" viewBox="0 0 730 507" width="730px" zoomAndPan="magnify"><defs/><g><text fill="#000000" font-family="Helvetica" font-size="14" font-weight="bold" lengthAdjust="spacingAndGlyphs" textLength="145" x="298.75" y="22.9951">Simple WPT Dialog</text><rect fill="#FFFFFF" height="167.7969" style="stroke: #000000; stroke-width: 2.0;" width="716.5" x="13" y="216.9922"/><line style="stroke: #A80036; stroke-width: 1.0; stroke-dasharray: 5.0,5.0;" x1="48" x2="48" y1="112.5938" y2="430.9219"/><line style="stroke: #A80036; stroke-width: 1.0; stroke-dasharray: 5.0,5.0;" x1="264" x2="264" y1="112.5938" y2="430.9219"/><line style="stroke: #A80036; stroke-width: 1.0; stroke-dasharray: 5.0,5.0;" x1="492" x2="492" y1="112.5938" y2="430.9219"/><text fill="#000000" font-family="Helvetica" font-size="14" lengthAdjust="spacingAndGlyphs" textLength="45" x="23" y="109.292">Tester</text><ellipse cx="48.5" cy="43.2969" fill="#FEFECE" rx="8" ry="8" style="stroke: #A80036; stroke-width: 2.0;"/><path d="M48.5,51.2969 L48.5,78.2969 M35.5,59.2969 L61.5,59.2969 M48.5,78.2969 L35.5,93.2969 M48.5,78.2969 L61.5,93.2969 " fill="#FEFECE" style="stroke: #A80036; stroke-width: 2.0;"/><text fill="#000000" font-family="Helvetica" font-size="14" lengthAdjust="spacingAndGlyphs" textLength="45" x="23" y="442.917">Tester</text><ellipse cx="48.5" cy="456.2188" fill="#FEFECE" rx="8" ry="8" style="stroke: #A80036; stroke-width: 2.0;"/><path d="M48.5,464.2188 L48.5,491.2188 M35.5,472.2188 L61.5,472.2188 M48.5,491.2188 L35.5,506.2188 M48.5,491.2188 L61.5,506.2188 " fill="#FEFECE" style="stroke: #A80036; stroke-width: 2.0;"/><rect fill="#FEFECE" height="30.2969" style="stroke: #A80036; stroke-width: 1.5;" width="141" x="194" y="81.2969"/><text fill="#000000" font-family="Helvetica" font-size="14" lengthAdjust="spacingAndGlyphs" textLength="127" x="201" y="101.292">WPT Run Interface</text><rect fill="#FEFECE" height="30.2969" style="stroke: #A80036; stroke-width: 1.5;" width="141" x="194" y="429.9219"/><text fill="#000000" font-family="Helvetica" font-size="14" lengthAdjust="spacingAndGlyphs" textLength="127" x="201" y="449.917">WPT Run Interface</text><rect fill="#FEFECE" height="30.2969" style="stroke: #A80036; stroke-width: 1.5;" width="103" x="441" y="81.2969"/><text fill="#000000" font-family="Helvetica" font-size="14" lengthAdjust="spacingAndGlyphs" textLength="89" x="448" y="101.292">Test Window</text><rect fill="#FEFECE" height="30.2969" style="stroke: #A80036; stroke-width: 1.5;" width="103" x="441" y="429.9219"/><text fill="#000000" font-family="Helvetica" font-size="14" lengthAdjust="spacingAndGlyphs" textLength="89" x="448" y="449.917">Test Window</text><polygon fill="#A80036" points="252.5,139.5938,262.5,143.5938,252.5,147.5938,256.5,143.5938" style="stroke: #A80036; stroke-width: 1.0;"/><line style="stroke: #A80036; stroke-width: 1.0;" x1="48.5" x2="258.5" y1="143.5938" y2="143.5938"/><text fill="#000000" font-family="Helvetica" font-size="13" lengthAdjust="spacingAndGlyphs" textLength="76" x="55.5" y="138.6606">Select tests</text><polygon fill="#A80036" points="59.5,168.7266,49.5,172.7266,59.5,176.7266,55.5,172.7266" style="stroke: #A80036; stroke-width: 1.0;"/><line style="stroke: #A80036; stroke-width: 1.0;" x1="53.5" x2="263.5" y1="172.7266" y2="172.7266"/><text fill="#000000" font-family="Helvetica" font-size="13" lengthAdjust="spacingAndGlyphs" textLength="174" x="65.5" y="167.7935">Shows matching test count</text><polygon fill="#A80036" points="252.5,197.8594,262.5,201.8594,252.5,205.8594,256.5,201.8594" style="stroke: #A80036; stroke-width: 1.0;"/><line style="stroke: #A80036; stroke-width: 1.0;" x1="48.5" x2="258.5" y1="201.8594" y2="201.8594"/><text fill="#000000" font-family="Helvetica" font-size="13" lengthAdjust="spacingAndGlyphs" textLength="63" x="55.5" y="196.9263">Start Test</text><rect fill="none" height="167.7969" style="stroke: #000000; stroke-width: 2.0;" width="716.5" x="13" y="216.9922"/><polygon fill="#EEEEEE" points="13,216.9922,224,216.9922,224,223.9922,214,233.9922,13,233.9922,13,216.9922" style="stroke: #000000; stroke-width: 2.0;"/><text fill="#000000" font-family="Helvetica" font-size="13" font-weight="bold" lengthAdjust="spacingAndGlyphs" textLength="166" x="28" y="230.0591">For each test selected</text><polygon fill="#A80036" points="480.5,261.6914,490.5,265.6914,480.5,269.6914,484.5,265.6914" style="stroke: #A80036; stroke-width: 1.0;"/><line style="stroke: #A80036; stroke-width: 1.0;" x1="264.5" x2="486.5" y1="265.6914" y2="265.6914"/><text fill="#000000" font-family="Helvetica" font-size="13" lengthAdjust="spacingAndGlyphs" textLength="94" x="271.5" y="260.7583">Load test case</text><polygon fill="#FBFB77" points="497,239.125,497,279.125,657,279.125,657,249.125,647,239.125,497,239.125" style="stroke: #A80036; stroke-width: 1.0;"/><line style="stroke: #A80036; stroke-width: 1.0;" x1="647" x2="647" y1="239.125" y2="249.125"/><line style="stroke: #A80036; stroke-width: 1.0;" x1="657" x2="647" y1="249.125" y2="249.125"/><text fill="#000000" font-family="Helvetica" font-size="13" lengthAdjust="spacingAndGlyphs" textLength="90" x="503" y="256.1919">Test window is</text><text fill="#000000" font-family="Helvetica" font-size="13" lengthAdjust="spacingAndGlyphs" textLength="139" x="503" y="271.3247">created the first time.</text><line style="stroke: #A80036; stroke-width: 1.0;" x1="492.5" x2="534.5" y1="305.5234" y2="305.5234"/><line style="stroke: #A80036; stroke-width: 1.0;" x1="534.5" x2="534.5" y1="305.5234" y2="318.5234"/><line style="stroke: #A80036; stroke-width: 1.0;" x1="493.5" x2="534.5" y1="318.5234" y2="318.5234"/><polygon fill="#A80036" points="503.5,314.5234,493.5,318.5234,503.5,322.5234,499.5,318.5234" style="stroke: #A80036; stroke-width: 1.0;"/><text fill="#000000" font-family="Helvetica" font-size="13" lengthAdjust="spacingAndGlyphs" textLength="218" x="499.5" y="300.4575">Evaluates conditions via Javascript</text><polygon fill="#A80036" points="275.5,343.5234,265.5,347.5234,275.5,351.5234,271.5,347.5234" style="stroke: #A80036; stroke-width: 1.0;"/><line style="stroke: #A80036; stroke-width: 1.0;" x1="269.5" x2="491.5" y1="347.5234" y2="347.5234"/><text fill="#000000" font-family="Helvetica" font-size="13" lengthAdjust="spacingAndGlyphs" textLength="204" x="281.5" y="342.5903">Deliver results of each "subtest"</text><polygon fill="#A80036" points="59.5,372.6563,49.5,376.6563,59.5,380.6563,55.5,376.6563" style="stroke: #A80036; stroke-width: 1.0;"/><line style="stroke: #A80036; stroke-width: 1.0;" x1="53.5" x2="263.5" y1="376.6563" y2="376.6563"/><text fill="#000000" font-family="Helvetica" font-size="13" lengthAdjust="spacingAndGlyphs" textLength="146" x="65.5" y="371.7231">Update table of results</text><polygon fill="#A80036" points="59.5,408.7891,49.5,412.7891,59.5,416.7891,55.5,412.7891" style="stroke: #A80036; stroke-width: 1.0;"/><line style="stroke: #A80036; stroke-width: 1.0;" x1="53.5" x2="263.5" y1="412.7891" y2="412.7891"/><text fill="#000000" font-family="Helvetica" font-size="13" lengthAdjust="spacingAndGlyphs" textLength="192" x="65.5" y="407.856">Make results available in JSON</text></g></svg>