<?xml version="1.0" encoding="UTF-8" standalone="no"?><svg xmlns="http://www.w3.org/2000/svg" xmlns:xlink="http://www.w3.org/1999/xlink" contentScriptType="application/ecmascript" contentStyleType="text/css" height="632px" preserveAspectRatio="none" style="width:861px;height:632px;" version="1.1" viewBox="0 0 861 632" width="861px" zoomAndPan="magnify"><defs/><g><rect fill="#DDDDDD" height="627.4531" style="stroke: #A80036; stroke-width: 1.0;" width="358" x="175" y="4"/><text fill="#000000" font-family="Helvetica" font-size="13" font-weight="bold" lengthAdjust="spacingAndGlyphs" textLength="122" x="293" y="16.0669">Scope of testing</text><line style="stroke: #A80036; stroke-width: 1.0; stroke-dasharray: 5.0,5.0;" x1="33" x2="33" y1="82.2969" y2="549.1563"/><line style="stroke: #A80036; stroke-width: 1.0; stroke-dasharray: 5.0,5.0;" x1="249" x2="249" y1="82.2969" y2="549.1563"/><line style="stroke: #A80036; stroke-width: 1.0; stroke-dasharray: 5.0,5.0;" x1="477" x2="477" y1="82.2969" y2="549.1563"/><line style="stroke: #A80036; stroke-width: 1.0; stroke-dasharray: 5.0,5.0;" x1="709.5" x2="709.5" y1="82.2969" y2="549.1563"/><text fill="#000000" font-family="Helvetica" font-size="14" lengthAdjust="spacingAndGlyphs" textLength="45" x="8" y="78.9951">Tester</text><ellipse cx="33.5" cy="13" fill="#FEFECE" rx="8" ry="8" style="stroke: #A80036; stroke-width: 2.0;"/><path d="M33.5,21 L33.5,48 M20.5,29 L46.5,29 M33.5,48 L20.5,63 M33.5,48 L46.5,63 " fill="#FEFECE" style="stroke: #A80036; stroke-width: 2.0;"/><text fill="#000000" font-family="Helvetica" font-size="14" lengthAdjust="spacingAndGlyphs" textLength="45" x="8" y="561.1514">Tester</text><ellipse cx="33.5" cy="574.4531" fill="#FEFECE" rx="8" ry="8" style="stroke: #A80036; stroke-width: 2.0;"/><path d="M33.5,582.4531 L33.5,609.4531 M20.5,590.4531 L46.5,590.4531 M33.5,609.4531 L20.5,624.4531 M33.5,609.4531 L46.5,624.4531 " fill="#FEFECE" style="stroke: #A80036; stroke-width: 2.0;"/><rect fill="#FEFECE" height="30.2969" style="stroke: #A80036; stroke-width: 1.5;" width="141" x="179" y="51"/><text fill="#000000" font-family="Helvetica" font-size="14" lengthAdjust="spacingAndGlyphs" textLength="127" x="186" y="70.9951">WPT Run Interface</text><rect fill="#FEFECE" height="30.2969" style="stroke: #A80036; stroke-width: 1.5;" width="141" x="179" y="548.1563"/><text fill="#000000" font-family="Helvetica" font-size="14" lengthAdjust="spacingAndGlyphs" textLength="127" x="186" y="568.1514">WPT Run Interface</text><rect fill="#FEFECE" height="30.2969" style="stroke: #A80036; stroke-width: 1.5;" width="103" x="426" y="51"/><text fill="#000000" font-family="Helvetica" font-size="14" lengthAdjust="spacingAndGlyphs" textLength="89" x="433" y="70.9951">Test Window</text><rect fill="#FEFECE" height="30.2969" style="stroke: #A80036; stroke-width: 1.5;" width="103" x="426" y="548.1563"/><text fill="#000000" font-family="Helvetica" font-size="14" lengthAdjust="spacingAndGlyphs" textLength="89" x="433" y="568.1514">Test Window</text><rect fill="#FEFECE" height="46.5938" style="stroke: #A80036; stroke-width: 1.5;" width="90" x="664.5" y="34.7031"/><text fill="#000000" font-family="Helvetica" font-size="14" lengthAdjust="spacingAndGlyphs" textLength="56" x="681.5" y="54.6982">Platform</text><text fill="#000000" font-family="Helvetica" font-size="14" lengthAdjust="spacingAndGlyphs" textLength="76" x="671.5" y="70.9951">A11Y Layer</text><rect fill="#FEFECE" height="46.5938" style="stroke: #A80036; stroke-width: 1.5;" width="90" x="664.5" y="548.1563"/><text fill="#000000" font-family="Helvetica" font-size="14" lengthAdjust="spacingAndGlyphs" textLength="56" x="681.5" y="568.1514">Platform</text><text fill="#000000" font-family="Helvetica" font-size="14" lengthAdjust="spacingAndGlyphs" textLength="76" x="671.5" y="584.4482">A11Y Layer</text><rect fill="#FFFFFF" height="3" style="stroke: #FFFFFF; stroke-width: 1.0;" width="857" x="3" y="112.8633"/><line style="stroke: #000000; stroke-width: 1.0;" x1="3" x2="860" y1="112.8633" y2="112.8633"/><line style="stroke: #000000; stroke-width: 1.0;" x1="3" x2="860" y1="115.8633" y2="115.8633"/><rect fill="#FFFFFF" height="23.1328" style="stroke: #000000; stroke-width: 2.0;" width="74" x="394.5" y="102.2969"/><text fill="#000000" font-family="Helvetica" font-size="13" font-weight="bold" lengthAdjust="spacingAndGlyphs" textLength="55" x="400.5" y="118.3638">Startup</text><polygon fill="#A80036" points="237.5,152.4297,247.5,156.4297,237.5,160.4297,241.5,156.4297" style="stroke: #A80036; stroke-width: 1.0;"/><line style="stroke: #A80036; stroke-width: 1.0;" x1="33.5" x2="243.5" y1="156.4297" y2="156.4297"/><text fill="#000000" font-family="Helvetica" font-size="13" lengthAdjust="spacingAndGlyphs" textLength="76" x="40.5" y="151.4966">Select tests</text><polygon fill="#A80036" points="44.5,181.5625,34.5,185.5625,44.5,189.5625,40.5,185.5625" style="stroke: #A80036; stroke-width: 1.0;"/><line style="stroke: #A80036; stroke-width: 1.0;" x1="38.5" x2="248.5" y1="185.5625" y2="185.5625"/><text fill="#000000" font-family="Helvetica" font-size="13" lengthAdjust="spacingAndGlyphs" textLength="174" x="50.5" y="180.6294">Shows matching test count</text><polygon fill="#A80036" points="237.5,210.6953,247.5,214.6953,237.5,218.6953,241.5,214.6953" style="stroke: #A80036; stroke-width: 1.0;"/><line style="stroke: #A80036; stroke-width: 1.0;" x1="33.5" x2="243.5" y1="214.6953" y2="214.6953"/><text fill="#000000" font-family="Helvetica" font-size="13" lengthAdjust="spacingAndGlyphs" textLength="63" x="40.5" y="209.7622">Start Test</text><rect fill="#FFFFFF" height="3" style="stroke: #FFFFFF; stroke-width: 1.0;" width="857" x="3" y="243.3945"/><line style="stroke: #000000; stroke-width: 1.0;" x1="3" x2="860" y1="243.3945" y2="243.3945"/><line style="stroke: #000000; stroke-width: 1.0;" x1="3" x2="860" y1="246.3945" y2="246.3945"/><rect fill="#FFFFFF" height="23.1328" style="stroke: #000000; stroke-width: 2.0;" width="72" x="395.5" y="232.8281"/><text fill="#000000" font-family="Helvetica" font-size="13" font-weight="bold" lengthAdjust="spacingAndGlyphs" textLength="53" x="401.5" y="248.895">Repeat</text><polygon fill="#A80036" points="465.5,293.5273,475.5,297.5273,465.5,301.5273,469.5,297.5273" style="stroke: #A80036; stroke-width: 1.0;"/><line style="stroke: #A80036; stroke-width: 1.0;" x1="249.5" x2="471.5" y1="297.5273" y2="297.5273"/><text fill="#000000" font-family="Helvetica" font-size="13" lengthAdjust="spacingAndGlyphs" textLength="94" x="256.5" y="292.5942">Load test case</text><polygon fill="#FBFB77" points="482,270.9609,482,310.9609,642,310.9609,642,280.9609,632,270.9609,482,270.9609" style="stroke: #A80036; stroke-width: 1.0;"/><line style="stroke: #A80036; stroke-width: 1.0;" x1="632" x2="632" y1="270.9609" y2="280.9609"/><line style="stroke: #A80036; stroke-width: 1.0;" x1="642" x2="632" y1="280.9609" y2="280.9609"/><text fill="#000000" font-family="Helvetica" font-size="13" lengthAdjust="spacingAndGlyphs" textLength="90" x="488" y="288.0278">Test window is</text><text fill="#000000" font-family="Helvetica" font-size="13" lengthAdjust="spacingAndGlyphs" textLength="139" x="488" y="303.1606">created the first time.</text><polygon fill="#FBFB77" points="714,321.2266,714,361.2266,855,361.2266,855,331.2266,845,321.2266,714,321.2266" style="stroke: #A80036; stroke-width: 1.0;"/><line style="stroke: #A80036; stroke-width: 1.0;" x1="845" x2="845" y1="321.2266" y2="331.2266"/><line style="stroke: #A80036; stroke-width: 1.0;" x1="855" x2="845" y1="331.2266" y2="331.2266"/><text fill="#000000" font-family="Helvetica" font-size="13" lengthAdjust="spacingAndGlyphs" textLength="82" x="720" y="338.2935">A11Y Testing</text><text fill="#000000" font-family="Helvetica" font-size="13" lengthAdjust="spacingAndGlyphs" textLength="120" x="720" y="353.4263">happens over here</text><line style="stroke: #A80036; stroke-width: 1.0;" x1="477.5" x2="519.5" y1="387.625" y2="387.625"/><line style="stroke: #A80036; stroke-width: 1.0;" x1="519.5" x2="519.5" y1="387.625" y2="400.625"/><line style="stroke: #A80036; stroke-width: 1.0;" x1="478.5" x2="519.5" y1="400.625" y2="400.625"/><polygon fill="#A80036" points="488.5,396.625,478.5,400.625,488.5,404.625,484.5,400.625" style="stroke: #A80036; stroke-width: 1.0;"/><text fill="#000000" font-family="Helvetica" font-size="13" lengthAdjust="spacingAndGlyphs" textLength="218" x="484.5" y="382.5591">Evaluates conditions via Javascript</text><polygon fill="#A80036" points="260.5,425.625,250.5,429.625,260.5,433.625,256.5,429.625" style="stroke: #A80036; stroke-width: 1.0;"/><line style="stroke: #A80036; stroke-width: 1.0;" x1="254.5" x2="476.5" y1="429.625" y2="429.625"/><text fill="#000000" font-family="Helvetica" font-size="13" lengthAdjust="spacingAndGlyphs" textLength="204" x="266.5" y="424.6919">Deliver results of each "subtest"</text><polygon fill="#A80036" points="44.5,454.7578,34.5,458.7578,44.5,462.7578,40.5,458.7578" style="stroke: #A80036; stroke-width: 1.0;"/><line style="stroke: #A80036; stroke-width: 1.0;" x1="38.5" x2="248.5" y1="458.7578" y2="458.7578"/><text fill="#000000" font-family="Helvetica" font-size="13" lengthAdjust="spacingAndGlyphs" textLength="146" x="50.5" y="453.8247">Update table of results</text><rect fill="#FFFFFF" height="3" style="stroke: #FFFFFF; stroke-width: 1.0;" width="857" x="3" y="487.457"/><line style="stroke: #000000; stroke-width: 1.0;" x1="3" x2="860" y1="487.457" y2="487.457"/><line style="stroke: #000000; stroke-width: 1.0;" x1="3" x2="860" y1="490.457" y2="490.457"/><rect fill="#FFFFFF" height="23.1328" style="stroke: #000000; stroke-width: 2.0;" width="90" x="386.5" y="476.8906"/><text fill="#000000" font-family="Helvetica" font-size="13" font-weight="bold" lengthAdjust="spacingAndGlyphs" textLength="71" x="392.5" y="492.9575">Complete</text><polygon fill="#A80036" points="44.5,527.0234,34.5,531.0234,44.5,535.0234,40.5,531.0234" style="stroke: #A80036; stroke-width: 1.0;"/><line style="stroke: #A80036; stroke-width: 1.0;" x1="38.5" x2="248.5" y1="531.0234" y2="531.0234"/><text fill="#000000" font-family="Helvetica" font-size="13" lengthAdjust="spacingAndGlyphs" textLength="192" x="50.5" y="526.0903">Make results available in JSON</text></g></svg>